<svg width="48" height="45" viewBox="0 0 48 45" fill="none" xmlns="http://www.w3.org/2000/svg">
<path d="M1.60178 44.7081C2.13765 44.7081 2.57206 44.2737 2.57206 43.7379C2.57206 43.202 2.13765 42.7676 1.60178 42.7676C1.06591 42.7676 0.6315 43.202 0.6315 43.7379C0.6315 44.2737 1.06591 44.7081 1.60178 44.7081Z" fill="#DE6944"/>
<path d="M1.60178 36.3225C2.13765 36.3225 2.57206 35.8881 2.57206 35.3522C2.57206 34.8164 2.13765 34.382 1.60178 34.382C1.06591 34.382 0.6315 34.8164 0.6315 35.3522C0.6315 35.8881 1.06591 36.3225 1.60178 36.3225Z" fill="#DE6944"/>
<path d="M1.60178 27.936C2.13765 27.936 2.57206 27.5016 2.57206 26.9657C2.57206 26.4298 2.13765 25.9954 1.60178 25.9954C1.06591 25.9954 0.6315 26.4298 0.6315 26.9657C0.6315 27.5016 1.06591 27.936 1.60178 27.936Z" fill="#DE6944"/>
<path d="M1.60178 19.6193C2.13765 19.6193 2.57206 19.1849 2.57206 18.649C2.57206 18.1132 2.13765 17.6788 1.60178 17.6788C1.06591 17.6788 0.6315 18.1132 0.6315 18.649C0.6315 19.1849 1.06591 19.6193 1.60178 19.6193Z" fill="#DE6944"/>
<path d="M1.60178 11.2338C2.13765 11.2338 2.57206 10.7994 2.57206 10.2635C2.57206 9.72762 2.13765 9.29321 1.60178 9.29321C1.06591 9.29321 0.6315 9.72762 0.6315 10.2635C0.6315 10.7994 1.06591 11.2338 1.60178 11.2338Z" fill="#DE6944"/>
<path d="M1.60266 2.91724C2.13853 2.91724 2.57294 2.48283 2.57294 1.94696C2.57294 1.41109 2.13853 0.976685 1.60266 0.976685C1.06679 0.976685 0.632385 1.41109 0.632385 1.94696C0.632385 2.48283 1.06679 2.91724 1.60266 2.91724Z" fill="#DE6944"/>
<path d="M46.5132 44.7075C47.0491 44.7075 47.4835 44.2731 47.4835 43.7372C47.4835 43.2014 47.0491 42.767 46.5132 42.767C45.9773 42.767 45.5429 43.2014 45.5429 43.7372C45.5429 44.2731 45.9773 44.7075 46.5132 44.7075Z" fill="#DE6944"/>
<path d="M46.5132 36.3219C47.0491 36.3219 47.4835 35.8875 47.4835 35.3516C47.4835 34.8158 47.0491 34.3813 46.5132 34.3813C45.9773 34.3813 45.5429 34.8158 45.5429 35.3516C45.5429 35.8875 45.9773 36.3219 46.5132 36.3219Z" fill="#DE6944"/>
<path d="M46.5132 27.9354C47.0491 27.9354 47.4835 27.501 47.4835 26.9651C47.4835 26.4292 47.0491 25.9948 46.5132 25.9948C45.9773 25.9948 45.5429 26.4292 45.5429 26.9651C45.5429 27.501 45.9773 27.9354 46.5132 27.9354Z" fill="#DE6944"/>
<path d="M46.5132 19.6187C47.0491 19.6187 47.4835 19.1843 47.4835 18.6484C47.4835 18.1126 47.0491 17.6782 46.5132 17.6782C45.9773 17.6782 45.5429 18.1126 45.5429 18.6484C45.5429 19.1843 45.9773 19.6187 46.5132 19.6187Z" fill="#DE6944"/>
<path d="M46.5132 11.2332C47.0491 11.2332 47.4835 10.7987 47.4835 10.2629C47.4835 9.72701 47.0491 9.2926 46.5132 9.2926C45.9773 9.2926 45.5429 9.72701 45.5429 10.2629C45.5429 10.7987 45.9773 11.2332 46.5132 11.2332Z" fill="#DE6944"/>
<path d="M46.5135 2.91663C47.0493 2.91663 47.4837 2.48222 47.4837 1.94635C47.4837 1.41048 47.0493 0.976074 46.5135 0.976074C45.9776 0.976074 45.5432 1.41048 45.5432 1.94635C45.5432 2.48222 45.9776 2.91663 46.5135 2.91663Z" fill="#DE6944"/>
<path d="M37.5728 44.7075C38.1086 44.7075 38.543 44.2731 38.543 43.7372C38.543 43.2014 38.1086 42.767 37.5728 42.767C37.0369 42.767 36.6025 43.2014 36.6025 43.7372C36.6025 44.2731 37.0369 44.7075 37.5728 44.7075Z" fill="#DE6944"/>
<path d="M37.5728 36.3219C38.1086 36.3219 38.543 35.8875 38.543 35.3516C38.543 34.8158 38.1086 34.3813 37.5728 34.3813C37.0369 34.3813 36.6025 34.8158 36.6025 35.3516C36.6025 35.8875 37.0369 36.3219 37.5728 36.3219Z" fill="#DE6944"/>
<path d="M37.5728 27.9354C38.1086 27.9354 38.543 27.501 38.543 26.9651C38.543 26.4292 38.1086 25.9948 37.5728 25.9948C37.0369 25.9948 36.6025 26.4292 36.6025 26.9651C36.6025 27.501 37.0369 27.9354 37.5728 27.9354Z" fill="#DE6944"/>
<path d="M37.5728 19.6187C38.1086 19.6187 38.543 19.1843 38.543 18.6484C38.543 18.1126 38.1086 17.6782 37.5728 17.6782C37.0369 17.6782 36.6025 18.1126 36.6025 18.6484C36.6025 19.1843 37.0369 19.6187 37.5728 19.6187Z" fill="#DE6944"/>
<path d="M37.5728 11.2332C38.1086 11.2332 38.543 10.7987 38.543 10.2629C38.543 9.72701 38.1086 9.2926 37.5728 9.2926C37.0369 9.2926 36.6025 9.72701 36.6025 10.2629C36.6025 10.7987 37.0369 11.2332 37.5728 11.2332Z" fill="#DE6944"/>
<path d="M37.5724 2.91663C38.1083 2.91663 38.5427 2.48222 38.5427 1.94635C38.5427 1.41048 38.1083 0.976074 37.5724 0.976074C37.0365 0.976074 36.6021 1.41048 36.6021 1.94635C36.6021 2.48222 37.0365 2.91663 37.5724 2.91663Z" fill="#DE6944"/>
<path d="M28.5631 44.7075C29.0989 44.7075 29.5334 44.2731 29.5334 43.7372C29.5334 43.2014 29.0989 42.767 28.5631 42.767C28.0272 42.767 27.5928 43.2014 27.5928 43.7372C27.5928 44.2731 28.0272 44.7075 28.5631 44.7075Z" fill="#DE6944"/>
<path d="M28.5631 36.3219C29.0989 36.3219 29.5334 35.8875 29.5334 35.3516C29.5334 34.8158 29.0989 34.3813 28.5631 34.3813C28.0272 34.3813 27.5928 34.8158 27.5928 35.3516C27.5928 35.8875 28.0272 36.3219 28.5631 36.3219Z" fill="#DE6944"/>
<path d="M28.5631 27.9354C29.0989 27.9354 29.5334 27.501 29.5334 26.9651C29.5334 26.4292 29.0989 25.9948 28.5631 25.9948C28.0272 25.9948 27.5928 26.4292 27.5928 26.9651C27.5928 27.501 28.0272 27.9354 28.5631 27.9354Z" fill="#DE6944"/>
<path d="M28.5631 19.6187C29.0989 19.6187 29.5334 19.1843 29.5334 18.6484C29.5334 18.1126 29.0989 17.6782 28.5631 17.6782C28.0272 17.6782 27.5928 18.1126 27.5928 18.6484C27.5928 19.1843 28.0272 19.6187 28.5631 19.6187Z" fill="#DE6944"/>
<path d="M28.5631 11.2332C29.0989 11.2332 29.5334 10.7987 29.5334 10.2629C29.5334 9.72701 29.0989 9.2926 28.5631 9.2926C28.0272 9.2926 27.5928 9.72701 27.5928 10.2629C27.5928 10.7987 28.0272 11.2332 28.5631 11.2332Z" fill="#DE6944"/>
<path d="M28.5627 2.91663C29.0986 2.91663 29.533 2.48222 29.533 1.94635C29.533 1.41048 29.0986 0.976074 28.5627 0.976074C28.0268 0.976074 27.5924 1.41048 27.5924 1.94635C27.5924 2.48222 28.0268 2.91663 28.5627 2.91663Z" fill="#DE6944"/>
<path d="M19.5534 44.7075C20.0893 44.7075 20.5237 44.2731 20.5237 43.7372C20.5237 43.2014 20.0893 42.767 19.5534 42.767C19.0175 42.767 18.5831 43.2014 18.5831 43.7372C18.5831 44.2731 19.0175 44.7075 19.5534 44.7075Z" fill="#DE6944"/>
<path d="M19.5534 36.3219C20.0893 36.3219 20.5237 35.8875 20.5237 35.3516C20.5237 34.8158 20.0893 34.3813 19.5534 34.3813C19.0175 34.3813 18.5831 34.8158 18.5831 35.3516C18.5831 35.8875 19.0175 36.3219 19.5534 36.3219Z" fill="#DE6944"/>
<path d="M19.5534 27.9354C20.0893 27.9354 20.5237 27.501 20.5237 26.9651C20.5237 26.4292 20.0893 25.9948 19.5534 25.9948C19.0175 25.9948 18.5831 26.4292 18.5831 26.9651C18.5831 27.501 19.0175 27.9354 19.5534 27.9354Z" fill="#DE6944"/>
<path d="M19.5534 19.6187C20.0893 19.6187 20.5237 19.1843 20.5237 18.6484C20.5237 18.1126 20.0893 17.6782 19.5534 17.6782C19.0175 17.6782 18.5831 18.1126 18.5831 18.6484C18.5831 19.1843 19.0175 19.6187 19.5534 19.6187Z" fill="#DE6944"/>
<path d="M19.5534 11.2332C20.0893 11.2332 20.5237 10.7987 20.5237 10.2629C20.5237 9.72701 20.0893 9.2926 19.5534 9.2926C19.0175 9.2926 18.5831 9.72701 18.5831 10.2629C18.5831 10.7987 19.0175 11.2332 19.5534 11.2332Z" fill="#DE6944"/>
<path d="M19.553 2.91663C20.0888 2.91663 20.5233 2.48222 20.5233 1.94635C20.5233 1.41048 20.0888 0.976074 19.553 0.976074C19.0171 0.976074 18.5827 1.41048 18.5827 1.94635C18.5827 2.48222 19.0171 2.91663 19.553 2.91663Z" fill="#DE6944"/>
<path d="M10.5437 44.7075C11.0796 44.7075 11.514 44.2731 11.514 43.7372C11.514 43.2014 11.0796 42.767 10.5437 42.767C10.0079 42.767 9.57346 43.2014 9.57346 43.7372C9.57346 44.2731 10.0079 44.7075 10.5437 44.7075Z" fill="#DE6944"/>
<path d="M10.5437 36.3219C11.0796 36.3219 11.514 35.8875 11.514 35.3516C11.514 34.8158 11.0796 34.3813 10.5437 34.3813C10.0079 34.3813 9.57346 34.8158 9.57346 35.3516C9.57346 35.8875 10.0079 36.3219 10.5437 36.3219Z" fill="#DE6944"/>
<path d="M10.5437 27.9354C11.0796 27.9354 11.514 27.501 11.514 26.9651C11.514 26.4292 11.0796 25.9948 10.5437 25.9948C10.0079 25.9948 9.57346 26.4292 9.57346 26.9651C9.57346 27.501 10.0079 27.9354 10.5437 27.9354Z" fill="#DE6944"/>
<path d="M10.5437 19.6187C11.0796 19.6187 11.514 19.1843 11.514 18.6484C11.514 18.1126 11.0796 17.6782 10.5437 17.6782C10.0079 17.6782 9.57346 18.1126 9.57346 18.6484C9.57346 19.1843 10.0079 19.6187 10.5437 19.6187Z" fill="#DE6944"/>
<path d="M10.5437 11.2332C11.0796 11.2332 11.514 10.7987 11.514 10.2629C11.514 9.72701 11.0796 9.2926 10.5437 9.2926C10.0079 9.2926 9.57346 9.72701 9.57346 10.2629C9.57346 10.7987 10.0079 11.2332 10.5437 11.2332Z" fill="#DE6944"/>
<path d="M10.5432 2.91663C11.0791 2.91663 11.5135 2.48222 11.5135 1.94635C11.5135 1.41048 11.0791 0.976074 10.5432 0.976074C10.0074 0.976074 9.57297 1.41048 9.57297 1.94635C9.57297 2.48222 10.0074 2.91663 10.5432 2.91663Z" fill="#DE6944"/>
</svg>
